<svg width="106" height="48" viewBox="0 0 106 48" fill="none" xmlns="http://www.w3.org/2000/svg">
<path d="M16.9227 1.14282H13.8821L8.96059 16.6244L3.73556 1.14282H0.75C1.16456 1.41939 1.46862 2.00002 1.46862 3.05017V18.5872C1.46862 19.6397 1.16456 20.218 0.75 20.4946H3.12746C2.71289 20.218 2.40884 19.6374 2.40884 18.5872V3.71557L8.40978 21.1857V21.2132L8.43785 21.2688L8.46533 21.1027L14.1605 3.24371V18.5872C14.1605 19.6397 13.8564 20.218 13.4413 20.4946H16.925C16.5099 20.218 16.2058 19.6374 16.2058 18.5872V3.05017C16.2035 2.00002 16.5075 1.41939 16.9227 1.14282Z" fill="#324C89"/>
<path d="M43.1017 22.2914C37.4884 22.2914 36.5774 13.4727 35.1951 8.91136C36.799 8.7453 38.2357 7.33263 38.2357 5.40014C38.2363 2.3871 35.3337 1.14282 33.0387 1.14282H29.5006C29.9152 1.41939 30.2198 2.00002 30.2198 3.05017V12.6079C29.5123 13.7025 28.6077 14.5147 27.6769 14.993V1.14282H26.0174C17.473 1.14282 16.231 11.5654 21.235 15.076L19.4657 20.4969H21.7052C21.29 20.2204 20.6527 19.5848 20.986 18.5896L21.9537 15.521C22.8383 15.963 23.861 16.2121 25.0223 16.2121C25.2254 16.2168 25.4285 16.2074 25.6304 16.1841V18.5896C25.6304 19.6421 25.3263 20.2204 24.9117 20.4969H28.3949C27.9803 20.2204 27.6763 19.6397 27.6763 18.5896V15.6011C28.5943 15.1667 29.4889 14.4574 30.2192 13.4002V18.5872C30.2192 19.6397 29.9152 20.218 29.5006 20.4946H32.9838C32.5692 20.218 32.2663 19.6374 32.2663 18.5872V1.97195C35.4454 1.97195 35.9705 3.87988 35.9705 5.53872C35.9705 8.46873 34.0906 8.93884 32.7358 8.1372C33.814 12.3945 36.081 22.8446 42.6883 22.8446C44.0706 22.8446 45.3148 22.4019 46.6141 21.0197L46.282 20.7156C45.1476 21.9043 44.0969 22.2914 43.1017 22.2914ZM21.5946 13.9148C18.6085 10.4065 20.1288 2.66308 25.4924 2.00002L21.5946 13.9148ZM25.6292 15.7672L25.5187 15.6566C24.192 15.6566 23.0863 15.2421 22.2565 14.5784L25.6304 3.96291L25.6292 15.7672Z" fill="#324C89"/>
<path d="M57.4493 1.14282H54.4088L49.4872 16.6244L44.2622 1.14282H41.2766C41.6912 1.41939 41.9958 2.00002 41.9958 3.05017V18.5872C41.9958 19.6397 41.6912 20.218 41.2766 20.4946H43.6541C43.2395 20.218 42.9355 19.6374 42.9355 18.5872V3.71557L48.9346 21.1875V21.215L48.9621 21.2705L48.9896 21.1045L54.6847 3.24546V18.5872C54.6847 19.6397 54.3807 20.218 53.9661 20.4946H57.4493C57.0347 20.218 56.7307 19.6374 56.7307 18.5872V3.05017C56.7307 2.00002 57.0347 1.41939 57.4493 1.14282Z" fill="#324C89"/>
<path d="M62.0657 1.14282L58.8311 20.4969H60.7665C60.3513 20.2204 59.8818 19.6397 60.0473 18.5896L60.4069 16.3501H64.4157L64.7472 18.5896C64.9133 19.6421 64.4432 20.2204 64.0286 20.4969H67.3182L64.1391 1.14282H62.0657ZM60.5454 15.5187L62.4528 3.71557L64.2771 15.5204L60.5454 15.5187Z" fill="#324C89"/>
<path d="M77.3257 1.14282L74.6717 17.0664C74.2296 19.4439 73.925 19.6655 72.2667 19.6655H71.4645V3.05017C71.4645 1.99768 71.7691 1.41939 72.1837 1.14282H68.7C69.1151 1.41939 69.4192 2.00002 69.4192 3.05017V18.5872C69.4192 19.6397 69.1151 20.218 68.7 20.4946H76.0265C75.6113 20.218 75.1418 19.6374 75.3072 18.5872L75.6668 16.3478H79.6757L80.0072 18.5872C80.1733 19.6397 79.7031 20.218 79.2886 20.4946H82.5782L79.3991 1.14282H77.3257ZM75.8054 15.5187L77.7128 3.71557L79.5371 15.5204L75.8054 15.5187Z" fill="#324C89"/>
<path d="M86.8728 1.14282H83.8872C84.3018 1.41939 84.6058 2.00002 84.6058 3.05017V18.5872C84.6058 19.6397 84.3018 20.218 83.8872 20.4946H86.9277C98.539 20.4969 99.0922 1.14282 86.8728 1.14282ZM87.3154 19.7204C87.0812 19.7139 86.8527 19.6473 86.6517 19.5269V1.97195C95.968 1.97195 95.4155 19.7204 87.3154 19.7204Z" fill="#324C89"/>
<path d="M100.161 1.97195C103.34 1.97195 103.921 3.87988 103.921 6.80989H104.252V1.14282H96.7605C97.1756 1.41939 97.4797 2.00002 97.4797 3.05017V18.5872C97.4797 19.6397 97.1756 20.218 96.7605 20.4946H104.252V14.8252H103.921C103.921 17.7552 103.34 19.6631 100.161 19.6631H99.525V7.33555H99.9928C101.707 7.33555 103.227 9.62998 103.974 11.0953L104.25 10.9567L101.071 4.04535L100.767 4.21141C101.458 5.5662 100.767 6.50584 99.9653 6.50584H99.5227V1.97195H100.161Z" fill="#324C89"/>
<path d="M35.3179 28.4731C32.6913 26.5102 28.9333 24.8239 25.0339 24.8239C11.5702 24.8239 14.5008 44.8118 28.213 44.7837C33.493 44.7837 35.0413 39.5587 31.8622 35.3569H34.2397L35.8985 44.5072H36.23V34.5301H26.6647V34.8067C31.6961 36.134 33.7982 43.9575 28.7381 43.9575C19.0902 43.9575 14.2798 25.6009 25.0888 25.6009C28.517 25.6009 32.4148 27.7299 35.8985 32.7608H36.23V25.1595H35.8985L35.3179 28.4731Z" fill="#324C89"/>
<path d="M52.3219 46.3046C46.7086 46.3046 45.7976 37.4853 44.4153 32.9239C46.0186 32.7579 47.4559 31.3481 47.4559 29.4156C47.4559 26.402 44.5533 25.1577 42.2589 25.1577H38.7173C39.1318 25.4343 39.4359 26.0149 39.4359 27.0656V42.5992C39.4359 43.6517 39.1318 44.2306 38.7173 44.5066H42.2004C41.7859 44.2306 41.4818 43.65 41.4818 42.5992V25.9851C44.6609 25.9851 45.186 27.8924 45.186 29.5519C45.186 32.4825 43.3061 32.952 41.9519 32.1503C43.0296 36.4077 45.2965 46.8577 51.9038 46.8577C53.2861 46.8577 54.5304 46.4157 55.8296 45.0334L55.4981 44.7293C54.3643 45.9175 53.3159 46.3046 52.3219 46.3046Z" fill="#324C89"/>
<path d="M59.0637 24.8823C53.7007 24.8823 49.9421 28.697 49.9421 34.7792C49.9421 40.6398 53.4534 44.7867 59.0099 44.7867C64.539 44.7867 68.1315 40.6936 68.1315 34.7517C68.1315 28.8099 64.5098 24.8823 59.0637 24.8823ZM60.1694 43.7102C50.6596 43.7102 48.2546 25.9623 57.958 25.9623C67.4129 25.9576 69.7629 43.7055 60.1694 43.7055V43.7102Z" fill="#324C89"/>
<path d="M75.3743 27.0633L75.4018 38.149L71.117 27.0633C70.7299 26.0956 71.4211 25.432 71.8356 25.1554H67.3018C67.8549 25.46 68.2139 26.0681 68.5735 26.9528L75.955 44.7563H76.259V27.0633C76.259 26.0108 76.7268 25.432 77.3372 25.1554H74.6581C75.0703 25.432 75.3743 26.0126 75.3743 27.0633Z" fill="#324C89"/>
<path d="M86.6531 33.6982C85.7964 33.6982 84.1932 34.1958 84.1932 38.149H84.3867C84.8013 34.3618 86.1835 34.2513 86.9296 34.2513V40.2224C86.9296 42.4894 86.7916 44.3418 84.9948 44.3418C83.0319 44.3418 81.4865 41.4667 81.4865 37.6789C81.4865 33.3941 84.113 31.1547 88.3704 30.9062V30.5191C83.2559 30.5191 81.7906 29.0813 81.7906 27.699C81.7906 26.2618 83.3693 25.5981 84.8042 25.5981C88.0663 25.5981 88.0108 28.2796 86.1584 28.2796V28.6112C88.2318 29.4409 89.4205 28.3901 89.4205 27.2844C89.4205 25.6256 87.1261 24.907 84.7212 24.907C81.7906 24.907 79.3026 25.7917 79.3026 27.699C79.3026 29.6344 81.7356 31.0167 86.297 31.0167C81.8186 31.0167 78.9985 33.8917 78.9985 37.6789C78.9985 41.7719 81.2655 44.8943 84.9977 44.8943C90.4958 44.8943 90.4958 33.6982 86.6531 33.6982Z" fill="#324C89"/>
</svg>
